<svg width="500" height="1000" viewBox="0 0 500 1000" fill="none" xmlns="http://www.w3.org/2000/svg">
<rect width="500" height="1000" fill="#F5F5F5"/>
<g clip-path="url(#clip0_0_1)">
<rect width="1500" height="1000" fill="white"/>
<rect width="500" height="1000" fill="#006CEA"/>
<rect opacity="0.04" x="165.156" y="140.08" width="291.171" height="425.152" rx="25" transform="rotate(146.881 165.156 140.08)" fill="white"/>
<rect opacity="0.04" x="818.539" y="585" width="342.502" height="500.103" rx="25" transform="rotate(60.5631 818.539 585)" fill="white"/>
<path opacity="0.04" d="M530.744 50.541C537.754 45.4481 547.246 45.4481 554.256 50.541L725.235 174.765C732.245 179.858 735.178 188.885 732.501 197.126L667.192 398.124C664.515 406.365 656.836 411.944 648.171 411.944H436.829C428.164 411.944 420.485 406.365 417.808 398.124L352.499 197.126C349.822 188.885 352.755 179.858 359.765 174.765L530.744 50.541Z" fill="white"/>
<path opacity="0.04" d="M45.4336 658.251C53.9896 656.883 62.453 661.18 66.3975 668.895L170.731 872.951C174.675 880.666 173.204 890.043 167.086 896.179L5.25731 1058.46C-0.860819 1064.6 -10.2338 1066.1 -17.9595 1062.17L-222.308 958.414C-230.034 954.491 -234.355 946.04 -233.012 937.48L-197.478 711.069C-196.135 702.509 -189.432 695.788 -180.876 694.421L45.4336 658.251Z" fill="white"/>
</g>
<defs>
<clipPath id="clip0_0_1">
<rect width="1500" height="1000" fill="white"/>
</clipPath>
</defs>
</svg>
