<svg width="20" height="20" viewBox="0 0 20 20" fill="none" xmlns="http://www.w3.org/2000/svg">
<path d="M12.7493 4.25C12.2922 4.84035 11.6587 5.26948 10.9409 5.475C10.8473 5.5033 10.7482 5.50859 10.652 5.49043C10.5559 5.47227 10.4655 5.43118 10.3887 5.37066C10.3118 5.31014 10.2506 5.23197 10.2104 5.14278C10.1702 5.05359 10.1521 4.95602 10.1576 4.85833C10.2424 4.14182 10.5317 3.46487 10.9909 2.90833C11.4492 2.36235 12.0446 1.94817 12.7159 1.70833C12.8174 1.66857 12.9276 1.65642 13.0353 1.6731C13.143 1.68979 13.2443 1.73471 13.329 1.80331C13.4137 1.87191 13.4787 1.96172 13.5174 2.06361C13.5561 2.1655 13.5671 2.27582 13.5493 2.38333C13.4357 3.06658 13.1487 3.70927 12.7159 4.25H12.7493ZM15.6493 8.41667C15.7359 8.33257 15.8032 8.23065 15.8465 8.11797C15.8899 8.00529 15.9082 7.88454 15.9003 7.76407C15.8924 7.64361 15.8584 7.5263 15.8006 7.42027C15.7429 7.31424 15.6628 7.22202 15.5659 7.15C14.9871 6.67452 14.2786 6.38416 13.5326 6.31666C12.3993 6.24166 11.4826 6.98333 10.3909 6.98333C9.29925 6.98333 8.62425 6.31666 7.41592 6.31666C6.7498 6.35833 6.10437 6.56431 5.53726 6.91621C4.97015 7.26811 4.49901 7.75498 4.16592 8.33333C3.01592 10.0667 3.21592 13.3333 5.04092 16.1833C5.69925 17.1917 6.57425 18.3333 7.72425 18.3333C8.74092 18.3333 9.02425 17.675 10.4076 17.675C11.7909 17.675 12.0743 18.3417 13.0659 18.3333C14.2159 18.3333 15.1326 17.0667 15.7909 16.0583C16.046 15.6803 16.2744 15.2849 16.4743 14.875C16.5536 14.6942 16.5662 14.491 16.5098 14.3017C16.4533 14.1125 16.3314 13.9494 16.1659 13.8417C15.7272 13.5557 15.3586 13.1745 15.0875 12.7265C14.8164 12.2784 14.6499 11.775 14.6002 11.2537C14.5506 10.7324 14.6191 10.2065 14.8007 9.71537C14.9824 9.22419 15.2724 8.78028 15.6493 8.41667Z" fill="black"/>
</svg>
