<svg width="18" height="16" viewBox="0 0 18 16" fill="none" xmlns="http://www.w3.org/2000/svg">
<path opacity="0.3" d="M4.00059 5.125C3.12522 5.16401 2.30041 5.54613 1.70465 6.18868C1.10889 6.83123 0.7901 7.68252 0.817256 8.55833V12.1667C0.781106 13.0481 1.09587 13.908 1.69257 14.5578C2.28927 15.2076 3.11924 15.5944 4.00059 15.6333H14.0006C14.8834 15.5965 15.7155 15.2107 16.314 14.5606C16.9125 13.9106 17.2284 13.0495 17.1923 12.1667V8.55833C17.2194 7.68113 16.8994 6.82863 16.3019 6.18585C15.7044 5.54307 14.8774 5.16188 14.0006 5.125H4.00059Z" fill="#3E97FF"/>
<path d="M8.37543 10.7583V2.5L7.00877 3.875C6.89158 3.99204 6.73272 4.05778 6.5671 4.05778C6.40147 4.05778 6.24262 3.99204 6.12543 3.875C6.06773 3.81768 6.02194 3.74952 5.99069 3.67444C5.95945 3.59935 5.94336 3.51883 5.94336 3.4375C5.94336 3.35617 5.95945 3.27565 5.99069 3.20056C6.02194 3.12548 6.06773 3.05731 6.12543 3L8.55877 0.558333C8.67595 0.441291 8.83481 0.375549 9.00043 0.375549C9.16606 0.375549 9.32491 0.441291 9.4421 0.558333L11.8754 3C11.9342 3.05742 11.9808 3.12615 12.0123 3.20206C12.0438 3.27797 12.0596 3.35948 12.0588 3.44167C12.0592 3.52378 12.0431 3.60515 12.0117 3.68099C11.9802 3.75684 11.9339 3.82563 11.8754 3.88333C11.7582 4.00037 11.5994 4.06612 11.4338 4.06612C11.2681 4.06612 11.1093 4.00037 10.9921 3.88333L9.62543 2.5V10.7583C9.62543 10.9241 9.55958 11.0831 9.44237 11.2003C9.32516 11.3175 9.16619 11.3833 9.00043 11.3833C8.83467 11.3833 8.6757 11.3175 8.55849 11.2003C8.44128 11.0831 8.37543 10.9241 8.37543 10.7583Z" fill="#3E97FF"/>
</svg>
