<svg width="32" height="33" viewBox="0 0 32 33" fill="none" xmlns="http://www.w3.org/2000/svg">
<g opacity="0.3">
<path d="M24.0004 7.40668H8.06708C7.28994 7.40792 6.52174 7.57246 5.81226 7.88963C5.10279 8.20679 4.46788 8.6695 3.9487 9.24777C3.42952 9.82604 3.03764 10.507 2.79848 11.2464C2.55932 11.9858 2.47821 12.7672 2.56041 13.54L3.74708 24.66C3.89483 26.0179 4.53842 27.2735 5.55454 28.1863C6.57066 29.0991 7.88785 29.6048 9.25375 29.6067H22.8937C24.2753 29.6092 25.6078 29.0947 26.6292 28.1646C27.6507 27.2344 28.2872 25.9557 28.4137 24.58L29.4537 13.4733C29.5236 12.7107 29.4352 11.9417 29.194 11.2148C28.9527 10.4879 28.5639 9.81871 28.0519 9.24912C27.5399 8.67953 26.9157 8.22186 26.2186 7.90481C25.5214 7.58777 24.7662 7.41818 24.0004 7.40668ZM18.4404 18.9667C18.4404 19.2059 18.3931 19.4428 18.3011 19.6637C18.2092 19.8846 18.0744 20.0851 17.9046 20.2536C17.7348 20.4222 17.5333 20.5555 17.3118 20.6458C17.0902 20.7362 16.853 20.7818 16.6137 20.78H15.0671C14.8278 20.7818 14.5906 20.7362 14.369 20.6458C14.1475 20.5555 13.946 20.4222 13.7762 20.2536C13.6064 20.0851 13.4717 19.8846 13.3797 19.6637C13.2877 19.4428 13.2404 19.2059 13.2404 18.9667V15.7933H18.3737L18.4404 18.9667Z" fill="#A1A5B7"/>
</g>
<path d="M29.4537 13.4734C29.5236 12.7107 29.4352 11.9418 29.194 11.2149C28.9527 10.4879 28.5639 9.81872 28.0519 9.24913C27.5399 8.67954 26.9157 8.22187 26.2186 7.90482C25.5214 7.58778 24.7662 7.41819 24.0004 7.40669H21.8537V6.07336C21.8537 5.11504 21.4731 4.19597 20.7954 3.51834C20.1178 2.84071 19.1987 2.46002 18.2404 2.46002H13.7204C12.7735 2.45986 11.8644 2.83139 11.1887 3.49466C10.5129 4.15794 10.1245 5.05997 10.1071 6.00669V7.34002H8.06708C7.28994 7.34127 6.52174 7.50581 5.81226 7.82297C5.10279 8.14014 4.46788 8.60285 3.9487 9.18112C3.42952 9.75939 3.03764 10.4403 2.79848 11.1797C2.55932 11.9191 2.47821 12.7006 2.56041 13.4734L2.76041 15.3934C5.53948 17.4704 8.82008 18.7725 12.2671 19.1667C12.3077 19.8837 12.6197 20.5584 13.1398 21.0537C13.6598 21.549 14.3489 21.8277 15.0671 21.8334H16.5471C17.2461 21.8302 17.9191 21.5682 18.4362 21.0978C18.9533 20.6275 19.2778 19.9823 19.3471 19.2867C23.0022 18.8997 26.469 17.4695 29.3337 15.1667L29.4537 13.4734ZM12.1204 6.00669C12.1204 5.57881 12.2904 5.16845 12.5929 4.86589C12.8955 4.56333 13.3059 4.39336 13.7337 4.39336H18.2537C18.6816 4.39336 19.092 4.56333 19.3945 4.86589C19.6971 5.16845 19.8671 5.57881 19.8671 6.00669V7.34002H12.1071L12.1204 6.00669ZM17.3337 18.9667C17.3338 19.0746 17.3123 19.1815 17.2706 19.281C17.2289 19.3806 17.1678 19.4709 17.0908 19.5466C17.0139 19.6223 16.9226 19.6819 16.8224 19.722C16.7222 19.7621 16.615 19.7818 16.5071 19.78H15.0671C14.9592 19.7818 14.852 19.7621 14.7517 19.722C14.6515 19.6819 14.5603 19.6223 14.4833 19.5466C14.4064 19.4709 14.3453 19.3806 14.3036 19.281C14.2619 19.1815 14.2404 19.0746 14.2404 18.9667V16.7934H17.3337V18.9667Z" fill="#A1A5B7"/>
</svg>
