<svg width="20" height="20" viewBox="0 0 20 20" fill="none" xmlns="http://www.w3.org/2000/svg">
<path d="M2.39913 18.2C2.23124 18.1985 2.07027 18.1329 1.94913 18.0166C1.83158 17.898 1.76562 17.7378 1.76562 17.5708C1.76562 17.4038 1.83158 17.2436 1.94913 17.125L17.1658 1.98331C17.2187 1.90618 17.2883 1.8419 17.3694 1.79524C17.4504 1.74857 17.541 1.7207 17.6342 1.71368C17.7275 1.70666 17.8212 1.72067 17.9084 1.75467C17.9955 1.78868 18.0739 1.84181 18.1378 1.91016C18.2017 1.97851 18.2494 2.06032 18.2774 2.14957C18.3055 2.23882 18.3131 2.33322 18.2998 2.42582C18.2865 2.51841 18.2526 2.60684 18.2005 2.68458C18.1485 2.76232 18.0797 2.82739 17.9991 2.87498L2.83247 18.0166C2.71793 18.1326 2.56213 18.1985 2.39913 18.2V18.2Z" fill="#A1A5B7"/>
<path d="M7.62502 10.5083C7.62722 9.87909 7.87815 9.27627 8.32307 8.83135C8.76799 8.38642 9.37081 8.1355 10 8.1333C10.3544 8.13347 10.7041 8.21376 11.023 8.36817C11.3419 8.52258 11.6218 8.74711 11.8417 9.02497L8.50835 12.3583C8.23138 12.1363 8.0081 11.8546 7.85515 11.5343C7.7022 11.214 7.62354 10.8633 7.62502 10.5083V10.5083ZM9.75835 12.8583C9.83886 12.8624 9.91952 12.8624 10 12.8583C10.6299 12.8583 11.234 12.6081 11.6794 12.1627C12.1248 11.7173 12.375 11.1132 12.375 10.4833C12.3791 10.4084 12.3791 10.3332 12.375 10.2583L9.75835 12.8583Z" fill="#A1A5B7"/>
<path d="M5.04102 15.8333L7.62435 13.2583C7.25309 12.9324 6.95273 12.5336 6.74187 12.0868C6.53101 11.64 6.41416 11.1547 6.39854 10.6609C6.38292 10.1671 6.46888 9.67533 6.65108 9.2161C6.83328 8.75688 7.10785 8.33996 7.45777 7.99118C7.80769 7.64241 8.22551 7.3692 8.68533 7.18851C9.14515 7.00781 9.63718 6.92346 10.1309 6.94069C10.6247 6.95793 11.1096 7.07637 11.5557 7.28869C12.0018 7.50101 12.3996 7.80268 12.7243 8.175L15.3577 5.55C13.8638 4.2482 11.9779 3.4827 9.99935 3.375C6.05768 3.375 1.66602 7.225 1.66602 10.5083C1.66602 12.2917 3.09102 14.35 5.04102 15.8333Z" fill="#E3E4E9"/>
<path d="M13.3824 9.25001C13.5394 9.65111 13.6213 10.0776 13.6241 10.5083C13.6284 11.0955 13.489 11.6748 13.218 12.1957C12.9471 12.7167 12.5529 13.1634 12.0697 13.4971C11.5865 13.8307 11.029 14.0411 10.4459 14.1098C9.86275 14.1786 9.27164 14.1037 8.72409 13.8917L6.10742 16.4917C7.28363 17.2045 8.62435 17.6007 9.99909 17.6417C14.1658 17.6417 18.3324 13.8167 18.3324 10.5083C18.1972 8.91112 17.4653 7.42344 16.2824 6.34167L13.3824 9.25001Z" fill="#E3E4E9"/>
</svg>
