<svg width="20" height="20" viewBox="0 0 20 20" fill="none" xmlns="http://www.w3.org/2000/svg">
<path d="M10 12.375C11.3117 12.375 12.375 11.3117 12.375 10C12.375 8.68832 11.3117 7.625 10 7.625C8.68832 7.625 7.625 8.68832 7.625 10C7.625 11.3117 8.68832 12.375 10 12.375Z" fill="black"/>
<path d="M10 12.375C11.3117 12.375 12.375 11.3117 12.375 10C12.375 8.68832 11.3117 7.625 10 7.625C8.68832 7.625 7.625 8.68832 7.625 10C7.625 11.3117 8.68832 12.375 10 12.375Z" fill="#A1A5B7"/>
<path d="M9.99935 2.86664C6.05768 2.86664 1.66602 6.71664 1.66602 9.99997C1.66602 13.1333 6.05768 17.1333 9.99935 17.1333C14.166 17.1333 18.3327 13.3083 18.3327 9.99997C18.3327 6.81664 13.941 2.86664 9.99935 2.86664ZM9.99935 13.625C9.28239 13.625 8.58154 13.4124 7.98541 13.014C7.38928 12.6157 6.92465 12.0496 6.65029 11.3872C6.37592 10.7248 6.30413 9.99595 6.444 9.29277C6.58387 8.58959 6.92912 7.94368 7.43609 7.43671C7.94305 6.92974 8.58897 6.5845 9.29215 6.44462C9.99533 6.30475 10.7242 6.37654 11.3866 6.65091C12.049 6.92528 12.6151 7.3899 13.0134 7.98603C13.4117 8.58216 13.6243 9.28301 13.6243 9.99997C13.6243 10.9614 13.2424 11.8834 12.5626 12.5632C11.8828 13.2431 10.9608 13.625 9.99935 13.625Z" fill="#E3E4E9"/>
</svg>
