<svg width="20" height="20" viewBox="0 0 20 20" fill="none" xmlns="http://www.w3.org/2000/svg">
<g clip-path="url(#clip0_83_28)">
<path d="M19.7879 10.225C19.7879 9.56668 19.7296 8.94168 19.6296 8.33334H10.2129V12.0917H15.6046C15.3629 13.325 14.6546 14.3667 13.6046 15.075V17.575H16.8212C18.7046 15.8333 19.7879 13.2667 19.7879 10.225Z" fill="#4285F4"/>
<path d="M10.2121 20C12.9121 20 15.1704 19.1 16.8204 17.575L13.6038 15.075C12.7038 15.675 11.5621 16.0417 10.2121 16.0417C7.60378 16.0417 5.39544 14.2834 4.60378 11.9084H1.28711V14.4834C2.92878 17.75 6.30378 20 10.2121 20Z" fill="#34A853"/>
<path d="M4.60456 11.9084C4.39622 11.3084 4.28789 10.6668 4.28789 10.0001C4.28789 9.33342 4.40456 8.69175 4.60456 8.09175V5.51675H1.28789C0.604556 6.86675 0.212891 8.38342 0.212891 10.0001C0.212891 11.6168 0.604556 13.1334 1.28789 14.4834L4.60456 11.9084Z" fill="#FBBC05"/>
<path d="M10.2121 3.95833C11.6871 3.95833 13.0038 4.46667 14.0454 5.45834L16.8954 2.60833C15.1704 0.991667 12.9121 0 10.2121 0C6.30378 0 2.92878 2.25 1.28711 5.51667L4.60378 8.09167C5.39544 5.71667 7.60378 3.95833 10.2121 3.95833Z" fill="#EA4335"/>
</g>
<defs>
<clipPath id="clip0_83_28">
<rect width="20" height="20" fill="white"/>
</clipPath>
</defs>
</svg>
