<svg width="18" height="18" viewBox="0 0 18 18" fill="none" xmlns="http://www.w3.org/2000/svg">
<g clip-path="url(#clip0_61_1795)">
<path d="M11.88 2.0025C12.4276 2.0074 12.9689 2.12012 13.473 2.33423C13.977 2.54833 14.434 2.85963 14.8177 3.25033C15.2014 3.64104 15.5045 4.10351 15.7095 4.61133C15.9145 5.11915 16.0174 5.66238 16.0125 6.21V11.79C16.0174 12.3376 15.9145 12.8808 15.7095 13.3887C15.5045 13.8965 15.2014 14.359 14.8177 14.7497C14.434 15.1404 13.977 15.4517 13.473 15.6658C12.9689 15.8799 12.4276 15.9926 11.88 15.9975H6.12C5.57238 15.9926 5.03109 15.8799 4.52704 15.6658C4.02298 15.4517 3.56604 15.1404 3.1823 14.7497C2.79856 14.359 2.49553 13.8965 2.29053 13.3887C2.08552 12.8808 1.98255 12.3376 1.9875 11.79V6.21C1.98255 5.66238 2.08552 5.11915 2.29053 4.61133C2.49553 4.10351 2.79856 3.64104 3.1823 3.25033C3.56604 2.85963 4.02298 2.54833 4.52704 2.33423C5.03109 2.12012 5.57238 2.0074 6.12 2.0025H11.88ZM10.95 5.0925H11.475C10.1056 6.72616 8.15692 7.76633 6.0375 7.995C5.89627 7.995 5.76083 8.0511 5.66097 8.15097C5.5611 8.25083 5.505 8.38627 5.505 8.5275C5.505 8.66873 5.5611 8.80417 5.66097 8.90403C5.76083 9.0039 5.89627 9.06 6.0375 9.06C8.3493 8.84144 10.4928 7.7563 12.0375 6.0225V6.2175C12.0375 6.35674 12.0928 6.49027 12.1913 6.58873C12.2897 6.68719 12.4233 6.7425 12.5625 6.7425C12.7017 6.7425 12.8353 6.68719 12.9337 6.58873C13.0322 6.49027 13.0875 6.35674 13.0875 6.2175V4.56C13.0875 4.56 13.0875 4.56 13.0875 4.515V4.41C13.0782 4.37875 13.0657 4.34858 13.05 4.32C13.037 4.28988 13.0193 4.26202 12.9975 4.2375L12.93 4.155H12.8775C12.8479 4.1084 12.8027 4.07383 12.75 4.0575C12.7154 4.04975 12.6796 4.04975 12.645 4.0575H12.5925H10.95C10.8187 4.07305 10.6977 4.13624 10.6099 4.23508C10.522 4.33391 10.4735 4.46153 10.4735 4.59375C10.4735 4.72597 10.522 4.85359 10.6099 4.95242C10.6977 5.05126 10.8187 5.11445 10.95 5.13M12.585 14.175C12.6546 14.175 12.7235 14.1612 12.7877 14.1343C12.8518 14.1075 12.9101 14.0681 12.9589 14.0186C13.0078 13.969 13.0463 13.9103 13.0722 13.8457C13.0981 13.7811 13.111 13.7121 13.11 13.6425V8.835C13.11 8.76606 13.0964 8.69779 13.07 8.63409C13.0437 8.57039 13.005 8.51252 12.9562 8.46377C12.9075 8.41502 12.8496 8.37635 12.7859 8.34996C12.7222 8.32358 12.6539 8.31 12.585 8.31C12.5161 8.31 12.4478 8.32358 12.3841 8.34996C12.3204 8.37635 12.2625 8.41502 12.2138 8.46377C12.165 8.51252 12.1263 8.57039 12.1 8.63409C12.0736 8.69779 12.06 8.76606 12.06 8.835V13.605C12.059 13.6746 12.0719 13.7436 12.0978 13.8082C12.1237 13.8728 12.1622 13.9315 12.2111 13.9811C12.2599 14.0306 12.3182 14.07 12.3823 14.0968C12.4465 14.1237 12.5154 14.1375 12.585 14.1375M9.255 14.1375C9.32458 14.1375 9.39347 14.1237 9.45766 14.0968C9.52185 14.07 9.58006 14.0306 9.62891 13.9811C9.67776 13.9315 9.71627 13.8728 9.74221 13.8082C9.76815 13.7436 9.78099 13.6746 9.78 13.605V10.71C9.78 10.5708 9.72469 10.4372 9.62623 10.3388C9.52777 10.2403 9.39424 10.185 9.255 10.185C9.11576 10.185 8.98223 10.2403 8.88377 10.3388C8.78531 10.4372 8.73 10.5708 8.73 10.71V13.605C8.72901 13.6746 8.74185 13.7436 8.76779 13.8082C8.79373 13.8728 8.83224 13.9315 8.88109 13.9811C8.92994 14.0306 8.98815 14.07 9.05234 14.0968C9.11653 14.1237 9.18542 14.1375 9.255 14.1375ZM5.88 14.1375C5.94958 14.1375 6.01847 14.1237 6.08266 14.0968C6.14685 14.07 6.20506 14.0306 6.25391 13.9811C6.30276 13.9315 6.34127 13.8728 6.36721 13.8082C6.39315 13.7436 6.40599 13.6746 6.405 13.605V11.6025C6.41386 11.5288 6.40698 11.4541 6.38483 11.3832C6.36268 11.3124 6.32576 11.247 6.2765 11.1915C6.22724 11.1359 6.16677 11.0915 6.09907 11.061C6.03137 11.0306 5.95798 11.0149 5.88375 11.0149C5.80952 11.0149 5.73613 11.0306 5.66843 11.061C5.60073 11.0915 5.54026 11.1359 5.491 11.1915C5.44174 11.247 5.40482 11.3124 5.38267 11.3832C5.36052 11.4541 5.35364 11.5288 5.3625 11.6025V13.605C5.36151 13.6739 5.37411 13.7424 5.39958 13.8065C5.42505 13.8706 5.46289 13.929 5.51095 13.9784C5.55901 14.0279 5.61633 14.0674 5.67965 14.0947C5.74298 14.122 5.81105 14.1365 5.88 14.1375ZM11.88 0.9375H6.12C4.73934 0.955253 3.42126 1.5162 2.45125 2.49885C1.48123 3.4815 0.937386 4.80673 0.9375 6.1875V11.7675C0.937386 13.1483 1.48123 14.4735 2.45125 15.4561C3.42126 16.4388 4.73934 16.9997 6.12 17.0175H11.88C13.2607 16.9997 14.5787 16.4388 15.5488 15.4561C16.5188 14.4735 17.0626 13.1483 17.0625 11.7675V6.21C17.0626 4.82923 16.5188 3.504 15.5488 2.52135C14.5787 1.5387 13.2607 0.977753 11.88 0.96V0.9375Z" fill="#A1A5B7"/>
</g>
<defs>
<clipPath id="clip0_61_1795">
<rect width="18" height="18" fill="white"/>
</clipPath>
</defs>
</svg>
