<svg width="18" height="18" viewBox="0 0 18 18" fill="none" xmlns="http://www.w3.org/2000/svg">
<g clip-path="url(#clip0_61_1779)">
<path d="M13.4991 17.055H4.49907C4.02943 17.06 3.56348 16.9716 3.12824 16.7951C2.69301 16.6186 2.29716 16.3574 1.96366 16.0267C1.63016 15.696 1.36566 15.3023 1.18548 14.8686C1.00531 14.4349 0.913052 13.9697 0.914071 13.5V9.255C0.923855 8.46814 1.10154 7.69243 1.43524 6.97976C1.76894 6.26709 2.25096 5.63389 2.84907 5.1225L6.68157 1.815C7.33623 1.24721 8.17374 0.934616 9.04032 0.934616C9.90691 0.934616 10.7444 1.24721 11.3991 1.815L15.2016 5.175C15.7943 5.69426 16.2689 6.33439 16.5936 7.05237C16.9183 7.77034 17.0856 8.54952 17.0841 9.3375V13.5525C17.0811 14.0157 16.9861 14.4737 16.8046 14.8999C16.623 15.3261 16.3586 15.7119 16.0266 16.035C15.6931 16.3629 15.2982 16.6218 14.8645 16.7968C14.4307 16.9719 13.9668 17.0596 13.4991 17.055ZM11.2491 15.93H13.4991C14.1411 15.9328 14.7583 15.6821 15.2166 15.2325C15.4499 15.0171 15.6367 14.7563 15.7657 14.4661C15.8946 14.176 15.963 13.8625 15.9666 13.545V9.33C15.9686 8.70333 15.8357 8.08357 15.5769 7.51284C15.3181 6.94212 14.9394 6.43382 14.4666 6.0225L10.6566 2.6775C10.206 2.28948 9.63117 2.07607 9.03657 2.07607C8.44197 2.07607 7.86712 2.28948 7.41657 2.6775L3.58407 6C3.11299 6.41112 2.7354 6.91834 2.47667 7.48754C2.21794 8.05675 2.08407 8.67475 2.08407 9.3V13.545C2.09392 14.179 2.35269 14.7837 2.80453 15.2285C3.25637 15.6733 3.86502 15.9226 4.49907 15.9225H11.2491V15.93ZM12.5391 13.8C12.5391 13.6508 12.4798 13.5077 12.3743 13.4023C12.2688 13.2968 12.1258 13.2375 11.9766 13.2375H5.99907C5.84989 13.2375 5.70681 13.2968 5.60132 13.4023C5.49583 13.5077 5.43657 13.6508 5.43657 13.8C5.43657 13.9492 5.49583 14.0923 5.60132 14.1977C5.70681 14.3032 5.84989 14.3625 5.99907 14.3625H11.9991C12.1412 14.3551 12.2754 14.2948 12.3753 14.1935C12.4752 14.0922 12.5336 13.9572 12.5391 13.815V13.8Z" fill="#3E97FF"/>
</g>
<defs>
<clipPath id="clip0_61_1779">
<rect width="18" height="18" fill="white"/>
</clipPath>
</defs>
</svg>
