<svg width="250" height="74" viewBox="0 0 250 74" fill="none" xmlns="http://www.w3.org/2000/svg">
<path d="M142.781 3.47108L153.742 37.5978C154.364 39.5342 152.919 41.5151 150.885 41.5151H143.961C141.783 41.5151 139.855 40.1046 139.196 38.0283L128.362 3.90789C127.748 1.9734 129.192 0 131.221 0H138.021C140.193 0 142.117 1.40275 142.781 3.47108Z" fill="#50CD89"/>
<path d="M129.212 28.0488L121.203 2.39408C120.758 0.969858 119.439 0 117.947 0C115.872 0 114.16 1.62646 114.055 3.69927L113.101 22.4099C113.055 23.3218 113.165 24.2349 113.427 25.1098L117.694 39.3749C118.074 40.645 119.242 41.5151 120.568 41.5151H124.627C125.933 41.5151 127.088 40.6705 127.485 39.4264L129.194 34.0666C129.818 32.1101 129.824 30.009 129.212 28.0488Z" fill="white"/>
<path d="M129.212 28.0488L121.203 2.39408C120.758 0.969858 119.439 0 117.947 0C115.872 0 114.16 1.62646 114.055 3.69927L113.101 22.4099C113.055 23.3218 113.165 24.2349 113.427 25.1098L117.694 39.3749C118.074 40.645 119.242 41.5151 120.568 41.5151H124.627C125.933 41.5151 127.088 40.6705 127.485 39.4264L129.194 34.0666C129.818 32.1101 129.824 30.009 129.212 28.0488Z" fill="url(#paint0_linear_61_1260)"/>
<path d="M129.212 28.0488L121.203 2.39408C120.758 0.969858 119.439 0 117.947 0C115.872 0 114.16 1.62646 114.055 3.69927L113.101 22.4099C113.055 23.3218 113.165 24.2349 113.427 25.1098L117.694 39.3749C118.074 40.645 119.242 41.5151 120.568 41.5151H124.627C125.933 41.5151 127.088 40.6705 127.485 39.4264L129.194 34.0666C129.818 32.1101 129.824 30.009 129.212 28.0488Z" stroke="black"/>
<path d="M112.053 0H118.525C120.54 0 121.982 1.94701 121.394 3.87453L110.911 38.2757C110.269 40.3801 108.328 41.8181 106.128 41.8181H99.6559C97.6409 41.8181 96.1988 39.8711 96.7862 37.9436L107.27 3.54245C107.911 1.438 109.853 0 112.053 0Z" fill="#50CD89"/>
<g clip-path="url(#clip0_61_1260)">
<path d="M65.5293 72.4346H69.2904L69.7605 65.5535C69.846 64.3995 69.7605 62.9891 69.7605 62.9891H69.8033C69.8033 62.9891 70.3162 64.5918 70.6581 65.5535L72.2608 69.977H75.4663L77.069 65.5535C77.4109 64.5918 77.9238 62.9891 77.9238 62.9891H77.9665C77.9665 62.9891 77.8811 64.3995 77.9665 65.5535L78.4367 72.4346H82.1764L80.937 57.1551H76.8767L74.6542 63.6088C74.3123 64.5918 73.8849 66.1305 73.8849 66.1305H73.8422C73.8422 66.1305 73.4148 64.5918 73.0729 63.6088L70.8504 57.1551H66.7901L65.5293 72.4346ZM85.9443 72.4346H95.8172V69.2291H89.684V66.3442H94.3427V63.1387H89.684V60.3606H95.518V57.1551H85.9443V72.4346ZM102.076 72.4346H105.816V60.3606H110.453V57.1551H97.439V60.3606H102.076V72.4346ZM112.979 72.4346H116.719V67.2844H118.471L121.185 72.4346H125.352L122.382 67.0921C122.018 66.451 121.805 66.1732 121.805 66.1732V66.1305C123.322 65.3611 124.091 63.5874 124.091 61.9633C124.091 59.7409 123.001 58.1809 121.27 57.5184C120.608 57.262 119.86 57.1551 118.3 57.1551H112.979V72.4346ZM116.719 64.079V60.3606H117.979C119.86 60.3606 120.287 61.0444 120.287 62.1984C120.287 63.4165 119.539 64.079 118.343 64.079H116.719ZM127.098 64.6987C127.098 69.1864 130.474 72.691 135.09 72.691C139.706 72.691 143.082 69.1864 143.082 64.6987C143.082 60.3179 139.706 56.8987 135.09 56.8987C130.474 56.8987 127.098 60.3179 127.098 64.6987ZM130.966 64.6987C130.966 62.1984 132.804 60.3179 135.09 60.3179C137.377 60.3179 139.214 62.1984 139.214 64.6987C139.214 67.3058 137.377 69.2718 135.09 69.2718C132.804 69.2718 130.966 67.3058 130.966 64.6987ZM146.274 72.4346H150.014V65.3184C150.014 64.3568 149.843 62.7113 149.843 62.7113H149.885C149.885 62.7113 150.569 64.314 151.168 65.3184L155.42 72.4346H159.181V57.1551H155.442V64.2927C155.442 65.2543 155.613 66.8998 155.613 66.8998H155.57C155.57 66.8998 154.886 65.297 154.288 64.2927L150.056 57.1551H146.274V72.4346ZM163.422 72.4346H167.162V57.1551H163.422V72.4346ZM170.341 64.7628C170.341 69.2932 173.568 72.691 178.355 72.691C182.351 72.691 184.51 70.1266 184.51 70.1266L182.586 67.3913C182.586 67.3913 180.834 69.2718 178.526 69.2718C175.705 69.2718 174.209 66.9425 174.209 64.6773C174.209 62.4762 175.598 60.3179 178.526 60.3179C180.642 60.3179 182.351 61.8779 182.351 61.8779L184.082 59.057C184.082 59.057 182.137 56.8987 178.355 56.8987C173.76 56.8987 170.341 60.3179 170.341 64.7628Z" fill="white"/>
</g>
<defs>
<linearGradient id="paint0_linear_61_1260" x1="115.304" y1="23.0303" x2="124.092" y2="25.7576" gradientUnits="userSpaceOnUse">
<stop stop-color="#18175A" stop-opacity="0.42"/>
<stop offset="0.911458" stop-color="#65719B" stop-opacity="0"/>
</linearGradient>
<clipPath id="clip0_61_1260">
<rect width="120" height="16.4384" fill="white" transform="translate(65 56.8181)"/>
</clipPath>
</defs>
</svg>
