<svg width="18" height="18" viewBox="0 0 18 18" fill="none" xmlns="http://www.w3.org/2000/svg">
<path d="M6.00094 16.86C5.79714 16.8617 5.59612 16.8127 5.41594 16.7175C5.20418 16.6117 5.02606 16.449 4.90155 16.2476C4.77703 16.0463 4.71103 15.8143 4.71094 15.5775V14.1375C3.70012 14.0875 2.74718 13.6509 2.04921 12.918C1.35124 12.1852 0.961624 11.2121 0.960938 10.2V5.08501C0.962884 4.04322 1.37606 3.04433 2.11061 2.30557C2.84516 1.5668 3.84167 1.14792 4.88344 1.14001H13.1334C14.1791 1.142 15.1814 1.55827 15.9208 2.29767C16.6602 3.03707 17.0765 4.03934 17.0784 5.08501V10.2C17.0765 11.2457 16.6602 12.248 15.9208 12.9874C15.1814 13.7268 14.1791 14.143 13.1334 14.145H10.2009C10.1693 14.1342 10.135 14.1342 10.1034 14.145L6.75094 16.62C6.53139 16.7749 6.26961 16.8587 6.00094 16.86ZM4.88344 2.25001C4.51184 2.25001 4.14391 2.32344 3.80079 2.4661C3.45767 2.60876 3.14613 2.81782 2.88407 3.08127C2.62202 3.34472 2.41461 3.65737 2.27378 4.00124C2.13294 4.34511 2.06146 4.71343 2.06344 5.08501V10.2C2.06542 10.9473 2.36316 11.6634 2.89158 12.1919C3.42001 12.7203 4.13614 13.018 4.88344 13.02C5.00557 13.02 5.1265 13.0441 5.23933 13.0908C5.35217 13.1375 5.45469 13.206 5.54105 13.2924C5.62741 13.3788 5.69591 13.4813 5.74265 13.5941C5.78938 13.707 5.81344 13.8279 5.81344 13.95V15.5775C5.81244 15.6075 5.82048 15.6372 5.83653 15.6626C5.85258 15.688 5.87589 15.708 5.90344 15.72C5.92707 15.7383 5.95608 15.7482 5.98594 15.7482C6.01579 15.7482 6.04481 15.7383 6.06844 15.72L9.44344 13.275C9.66254 13.1193 9.92461 13.0354 10.1934 13.035H13.1109C13.8582 13.033 14.5744 12.7353 15.1028 12.2069C15.6312 11.6784 15.929 10.9623 15.9309 10.215V5.08501C15.9329 4.71406 15.8617 4.34635 15.7213 4.00297C15.5809 3.65959 15.3742 3.34728 15.1129 3.08392C14.8517 2.82057 14.541 2.61135 14.1988 2.46826C13.8565 2.32516 13.4894 2.251 13.1184 2.25001H4.88344ZM9.00094 4.59001C8.54344 4.59001 8.10468 4.77176 7.78118 5.09526C7.45768 5.41876 7.27594 5.85752 7.27594 6.31501C7.27594 6.4642 7.3352 6.60727 7.44069 6.71276C7.54618 6.81825 7.68925 6.87751 7.83844 6.87751C7.98762 6.87751 8.1307 6.81825 8.23619 6.71276C8.34167 6.60727 8.40094 6.4642 8.40094 6.31501C8.40094 6.15588 8.46415 6.00327 8.57667 5.89075C8.6892 5.77823 8.84181 5.71501 9.00094 5.71501C9.16007 5.71501 9.31268 5.77823 9.4252 5.89075C9.53772 6.00327 9.60094 6.15588 9.60094 6.31501C9.60078 6.41902 9.5729 6.5211 9.52017 6.61074C9.46744 6.70038 9.39176 6.77435 9.30094 6.82502C9.02988 6.99795 8.80806 7.23794 8.65695 7.52175C8.50585 7.80556 8.43058 8.12358 8.43844 8.44501V8.65501C8.43844 8.8042 8.4977 8.94727 8.60319 9.05276C8.70868 9.15825 8.85175 9.21751 9.00094 9.21751C9.15012 9.21751 9.2932 9.15825 9.39869 9.05276C9.50417 8.94727 9.56344 8.8042 9.56344 8.65501V8.44501C9.557 8.32041 9.58174 8.19617 9.63544 8.08354C9.68913 7.97091 9.77008 7.87346 9.87094 7.80001C10.196 7.6079 10.449 7.31446 10.5912 6.9647C10.7334 6.61493 10.7569 6.22817 10.6582 5.86375C10.5594 5.49933 10.3438 5.17738 10.0444 4.9473C9.74508 4.71721 9.3785 4.5917 9.00094 4.59001ZM9.00094 9.75001C8.88969 9.75001 8.78093 9.783 8.68843 9.84481C8.59593 9.90662 8.52383 9.99447 8.48126 10.0973C8.43868 10.2 8.42754 10.3131 8.44925 10.4223C8.47095 10.5314 8.52452 10.6316 8.60319 10.7103C8.68186 10.7889 8.78209 10.8425 8.8912 10.8642C9.00031 10.8859 9.11341 10.8748 9.2162 10.8322C9.31898 10.7896 9.40683 10.7175 9.46864 10.625C9.53045 10.5325 9.56344 10.4238 9.56344 10.3125C9.56149 10.1639 9.50161 10.022 9.39654 9.91691C9.29147 9.81184 9.14952 9.75196 9.00094 9.75001Z" fill="#A1A5B7"/>
</svg>
