<svg width="18" height="18" viewBox="0 0 18 18" fill="none" xmlns="http://www.w3.org/2000/svg">
<g clip-path="url(#clip0_61_1791)">
<path d="M12.0751 17.0625H5.92505C4.59357 17.0486 3.32168 16.5084 2.38719 15.5599C1.45269 14.6113 0.931535 13.3315 0.937552 12V6C0.931535 4.66846 1.45269 3.38865 2.38719 2.4401C3.32168 1.49155 4.59357 0.951357 5.92505 0.9375H12.0751C13.4065 0.951357 14.6784 1.49155 15.6129 2.4401C16.5474 3.38865 17.0686 4.66846 17.0626 6V12C17.0686 13.3315 16.5474 14.6113 15.6129 15.5599C14.6784 16.5084 13.4065 17.0486 12.0751 17.0625ZM5.92505 2.1075C4.9012 2.11936 3.92343 2.53493 3.20435 3.26384C2.48526 3.99276 2.08301 4.97609 2.08505 6V12C2.08301 13.0239 2.48526 14.0072 3.20435 14.7362C3.92343 15.4651 4.9012 15.8806 5.92505 15.8925H12.0751C13.0989 15.8806 14.0767 15.4651 14.7958 14.7362C15.5148 14.0072 15.9171 13.0239 15.9151 12V6C15.9171 4.97609 15.5148 3.99276 14.7958 3.26384C14.0767 2.53493 13.0989 2.11936 12.0751 2.1075H5.92505ZM5.36255 8.1075C5.445 8.09555 5.52388 8.0659 5.59379 8.02059C5.6637 7.97528 5.72297 7.91538 5.76755 7.845L7.03505 5.7975C7.11708 5.6658 7.14417 5.50719 7.11051 5.35573C7.07686 5.20427 6.98513 5.07206 6.85505 4.9875C6.79142 4.94677 6.72024 4.91927 6.64575 4.90665C6.57126 4.89402 6.49499 4.89654 6.42149 4.91404C6.34799 4.93154 6.27877 4.96366 6.21796 5.0085C6.15715 5.05333 6.106 5.10996 6.06755 5.175L5.15255 6.675L4.63505 6.2175C4.57913 6.16631 4.51343 6.12695 4.44191 6.10179C4.37039 6.07663 4.29452 6.06619 4.21886 6.07109C4.1432 6.07599 4.06932 6.09614 4.00164 6.13032C3.93397 6.16451 3.8739 6.21202 3.82505 6.27C3.72636 6.38802 3.67678 6.53945 3.68655 6.69298C3.69632 6.84652 3.7647 6.99044 3.87755 7.095L4.90505 8.0025C5.00935 8.09271 5.14216 8.14318 5.28005 8.145L5.36255 8.1075ZM14.0401 6.945C14.0405 6.79734 13.9851 6.65498 13.8849 6.54647C13.7848 6.43797 13.6473 6.37136 13.5001 6.36H9.00005C8.87117 6.38976 8.75618 6.46232 8.67384 6.56584C8.5915 6.66936 8.54668 6.79773 8.54668 6.93C8.54668 7.06227 8.5915 7.19064 8.67384 7.29416C8.75618 7.39768 8.87117 7.47024 9.00005 7.5H13.5001C13.6422 7.4892 13.7756 7.42684 13.875 7.32463C13.9745 7.22243 14.0331 7.08743 14.0401 6.945ZM5.34005 12.195C5.4225 12.183 5.50138 12.1534 5.57129 12.1081C5.6412 12.0628 5.70047 12.0029 5.74505 11.9325L7.01255 9.9C7.09419 9.76946 7.12107 9.61201 7.08738 9.46178C7.05368 9.31155 6.96212 9.18066 6.83255 9.0975C6.70814 9.02629 6.56123 9.00526 6.42184 9.03871C6.28245 9.07217 6.16109 9.15758 6.08255 9.2775L5.16755 10.7775L4.65005 10.32C4.59364 10.2692 4.52755 10.2304 4.45575 10.2059C4.38395 10.1813 4.30792 10.1716 4.23225 10.1772C4.15658 10.1828 4.08282 10.2036 4.01542 10.2385C3.94802 10.2734 3.88836 10.3215 3.84005 10.38C3.74136 10.498 3.69178 10.6494 3.70155 10.803C3.71132 10.9565 3.7797 11.1004 3.89255 11.205L4.92005 12.105C5.02252 12.1982 5.15652 12.2492 5.29505 12.2475L5.34005 12.195ZM14.0551 11.0325C14.0441 10.8911 13.9815 10.7586 13.8791 10.6604C13.7767 10.5622 13.6418 10.5051 13.5001 10.5H9.00005C8.8449 10.5 8.6961 10.5616 8.58639 10.6713C8.47669 10.7811 8.41505 10.9298 8.41505 11.085C8.41505 11.2402 8.47669 11.3889 8.58639 11.4987C8.6961 11.6084 8.8449 11.67 9.00005 11.67H13.5001C13.5772 11.6672 13.6531 11.6489 13.7231 11.6162C13.7931 11.5835 13.8558 11.5371 13.9075 11.4798C13.9593 11.4225 13.999 11.3553 14.0243 11.2823C14.0497 11.2094 14.0601 11.1321 14.0551 11.055V11.0325Z" fill="#A1A5B7"/>
</g>
<defs>
<clipPath id="clip0_61_1791">
<rect width="18" height="18" fill="white"/>
</clipPath>
</defs>
</svg>
