<svg width="18" height="18" viewBox="0 0 18 18" fill="none" xmlns="http://www.w3.org/2000/svg">
<g clip-path="url(#clip0_61_1807)">
<path d="M15.8327 4.7325C15.7623 4.61659 15.6661 4.51844 15.5517 4.44561C15.4372 4.37279 15.3076 4.32724 15.1727 4.3125C15.0378 4.2972 14.9013 4.31069 14.772 4.35206C14.6427 4.39343 14.5237 4.46174 14.4227 4.5525L12.2252 6.6C12.0878 6.72972 11.9927 6.89798 11.9526 7.08268C11.9124 7.26738 11.929 7.45991 12.0002 7.635C12.155 8.00846 12.2365 8.40823 12.2402 8.8125C12.2375 9.31353 12.1168 9.80687 11.8877 10.2525C11.7951 10.4188 11.7561 10.6098 11.7763 10.7991C11.7964 10.9884 11.8746 11.1669 12.0002 11.31L14.2502 13.6425C14.3366 13.7376 14.4419 13.8135 14.5595 13.8652C14.6771 13.9168 14.8043 13.9432 14.9327 13.9425H15.0002C15.1357 13.9318 15.2671 13.8912 15.3851 13.8238C15.5031 13.7564 15.6047 13.6638 15.6827 13.5525C16.5694 12.2614 17.0589 10.7391 17.0909 9.17317C17.1229 7.60725 16.696 6.06621 15.8627 4.74L15.8327 4.7325ZM14.8727 12.8025L12.8702 10.6575C13.1251 10.1405 13.2695 9.57595 13.294 9.00001C13.3185 8.42407 13.2227 7.84934 13.0127 7.3125L15.0002 5.4375C15.6479 6.5137 15.995 7.74397 16.0052 9C16.0064 10.3508 15.6127 11.6725 14.8727 12.8025ZM6.70522 5.625C6.83845 5.76457 7.01151 5.85964 7.20077 5.89722C7.39003 5.9348 7.58627 5.91307 7.76272 5.835C8.21041 5.64297 8.6963 5.55662 9.18273 5.58263C9.66916 5.60864 10.1431 5.74632 10.5677 5.985C10.7097 6.06469 10.8699 6.10605 11.0327 6.105C11.2666 6.10606 11.4921 6.01749 11.6627 5.8575L13.7777 3.8775C13.8791 3.78205 13.958 3.66522 14.0086 3.53549C14.0592 3.40576 14.0802 3.26639 14.0702 3.1275C14.0618 2.99316 14.0238 2.86233 13.959 2.74436C13.8941 2.62639 13.8041 2.52417 13.6952 2.445C12.4276 1.53744 10.924 1.01686 9.36661 0.946311C7.80919 0.875761 6.26471 1.25826 4.92022 2.0475C4.79965 2.11752 4.69651 2.21396 4.61857 2.32957C4.54063 2.44518 4.48991 2.57696 4.47022 2.715C4.45735 2.85033 4.47269 2.98686 4.5153 3.11596C4.5579 3.24506 4.62683 3.36391 4.71772 3.465L6.70522 5.625ZM9.00023 1.995C10.4055 1.99186 11.7786 2.41555 12.9377 3.21L11.0102 5.0175C10.3927 4.68308 9.70248 4.50538 9.00023 4.5C8.4573 4.50154 7.91985 4.60852 7.41772 4.815L5.59522 2.88C6.63646 2.30014 7.80842 1.99554 9.00023 1.995ZM11.4602 11.925C11.3243 11.7795 11.1449 11.6818 10.9489 11.6467C10.7529 11.6115 10.5508 11.6408 10.3727 11.73C9.94595 11.9409 9.47629 12.0507 9.00023 12.0507C8.52416 12.0507 8.0545 11.9409 7.62772 11.73C7.45941 11.6456 7.26932 11.6148 7.08296 11.6416C6.89661 11.6684 6.72292 11.7516 6.58522 11.88L4.20022 14.13C4.0984 14.2251 4.01925 14.3419 3.96862 14.4717C3.91799 14.6015 3.89718 14.7411 3.90772 14.88C3.91457 15.0158 3.95182 15.1482 4.01672 15.2677C4.08163 15.3871 4.17253 15.4904 4.28272 15.57C5.62295 16.5306 7.22612 17.0559 8.87493 17.0747C10.5237 17.0934 12.1385 16.6048 13.5002 15.675C13.6108 15.6009 13.7038 15.5033 13.7725 15.3893C13.8412 15.2752 13.8839 15.1474 13.8977 15.015C13.914 14.8795 13.9003 14.742 13.8575 14.6124C13.8148 14.4828 13.744 14.3642 13.6502 14.265L11.4602 11.925ZM9.00023 16.005C7.58598 16.0064 6.2048 15.5774 5.04022 14.775L7.23772 12.75C7.78877 13.0058 8.38897 13.1383 8.99647 13.1383C9.60398 13.1383 10.2042 13.0058 10.7552 12.75L12.7502 14.8875C11.6323 15.6098 10.3312 15.9975 9.00023 16.005ZM5.88022 11.25C6.02596 11.1143 6.12429 10.9354 6.16074 10.7396C6.19719 10.5439 6.16985 10.3416 6.08272 10.1625C5.87684 9.73682 5.76919 9.27034 5.76772 8.7975C5.76563 8.24648 5.90509 7.70416 6.17272 7.2225C6.27316 7.05135 6.31572 6.85238 6.2941 6.65512C6.27249 6.45786 6.18784 6.27283 6.05272 6.1275L4.05022 4.005C3.95686 3.90048 3.84057 3.819 3.71044 3.76695C3.58032 3.7149 3.43991 3.6937 3.30022 3.705C3.16792 3.71175 3.03858 3.7467 2.92088 3.80749C2.80317 3.86828 2.69982 3.95352 2.61772 4.0575C1.51632 5.46837 0.924264 7.21017 0.937725 9C0.937422 10.5008 1.35839 11.9716 2.15272 13.245C2.22319 13.3609 2.31936 13.4591 2.4338 13.5319C2.54824 13.6047 2.67788 13.6503 2.81272 13.665H2.93272C3.17139 13.6676 3.40207 13.5791 3.57772 13.4175L5.88022 11.25ZM4.70272 8.8125C4.70244 9.41338 4.83296 10.0071 5.08522 10.5525L3.00022 12.54C2.29751 11.3618 1.95823 10.0024 2.02494 8.63214C2.09165 7.26191 2.56138 5.94186 3.37522 4.8375L5.25022 6.795C4.9006 7.4106 4.71227 8.1046 4.70272 8.8125Z" fill="#A1A5B7"/>
</g>
<defs>
<clipPath id="clip0_61_1807">
<rect width="18" height="18" fill="white"/>
</clipPath>
</defs>
</svg>
