<svg width="18" height="18" viewBox="0 0 18 18" fill="none" xmlns="http://www.w3.org/2000/svg">
<path d="M16.0425 13.0425L12 4.49999C11.9768 4.44879 11.9567 4.39619 11.94 4.34249H15.1275C15.3048 4.34253 15.4796 4.30038 15.6374 4.21953C15.7952 4.13867 15.9315 4.02143 16.035 3.87749C16.1372 3.73209 16.204 3.56482 16.23 3.38902C16.2561 3.21322 16.2407 3.03377 16.185 2.86499C15.9972 2.30205 15.6366 1.81271 15.1545 1.46664C14.6724 1.12056 14.0935 0.935393 13.5 0.937487H4.50002C4.02589 0.939073 3.55981 1.06018 3.14488 1.28961C2.72995 1.51904 2.37957 1.84939 2.12613 2.25011C1.87269 2.65082 1.72438 3.10897 1.69491 3.58219C1.66544 4.05541 1.75576 4.52842 1.95752 4.95749L6.00002 13.5C6.02328 13.5512 6.04332 13.6038 6.06002 13.6575H3.17252C2.94705 13.6582 2.7256 13.7172 2.52975 13.829C2.33391 13.9407 2.17035 14.1012 2.05502 14.295C1.94435 14.4851 1.88605 14.7012 1.88605 14.9212C1.88605 15.1412 1.94435 15.3573 2.05502 15.5475C2.29226 15.9989 2.64805 16.377 3.08413 16.6413C3.52022 16.9056 4.0201 17.046 4.53002 17.0475H13.5C13.9742 17.0459 14.4402 16.9248 14.8552 16.6954C15.2701 16.4659 15.6205 16.1356 15.8739 15.7349C16.1274 15.3341 16.2757 14.876 16.3051 14.4028C16.3346 13.9296 16.2443 13.4566 16.0425 13.0275V13.0425ZM13.5 2.06249C13.8506 2.06286 14.1926 2.17099 14.4797 2.37221C14.7668 2.57344 14.9851 2.85805 15.105 3.18749H7.50002C7.43825 3.18836 7.37759 3.17105 7.32558 3.13771C7.27358 3.10437 7.23252 3.05648 7.20752 2.99999C7.11833 2.66038 6.96285 2.34176 6.75002 2.06249H13.5ZM3.00002 15.045C2.98583 15.0239 2.97825 14.9991 2.97825 14.9737C2.97825 14.9483 2.98583 14.9235 3.00002 14.9025C3.01531 14.876 3.03711 14.8538 3.06335 14.838C3.0896 14.8223 3.11943 14.8135 3.15002 14.8125H6.08252C6.08252 14.8125 6.08252 14.85 6.08252 14.865L6.00002 15C5.97202 15.0599 5.93942 15.1176 5.90252 15.1725C5.88784 15.204 5.87027 15.2342 5.85002 15.2625L5.70002 15.45C5.70002 15.45 5.70002 15.45 5.70002 15.4875C5.63007 15.5558 5.55483 15.6185 5.47502 15.675H5.40752L5.19752 15.75L5.10752 15.7875C5.04028 15.8178 4.96983 15.8404 4.89752 15.855H4.80752C4.70517 15.8628 4.60237 15.8628 4.50002 15.855C4.20034 15.8669 3.90297 15.7979 3.63908 15.6554C3.37518 15.5129 3.15445 15.3021 3.00002 15.045ZM13.5 15.9375H6.75002L6.79502 15.87L6.88502 15.75C6.94499 15.6541 6.99764 15.5538 7.04252 15.45C7.07201 15.3971 7.09709 15.342 7.11752 15.285C7.11752 15.18 7.19252 15.0675 7.22252 14.955C7.25252 14.8425 7.22252 14.85 7.22252 14.7975C7.25522 14.6243 7.27278 14.4487 7.27502 14.2725C7.27577 13.8549 7.18354 13.4425 7.00502 13.065L3.00002 4.49999C2.88428 4.26733 2.82761 4.00974 2.83502 3.74999C2.83404 3.34106 2.98159 2.94569 3.25022 2.63738C3.51886 2.32907 3.89031 2.12879 4.29553 2.07379C4.70074 2.01878 5.11214 2.11279 5.45324 2.33833C5.79435 2.56387 6.04195 2.9056 6.15002 3.29999C6.23787 3.59053 6.4162 3.84543 6.65903 4.02756C6.90186 4.20968 7.1965 4.3095 7.50002 4.31249H10.7325C10.7775 4.53485 10.8479 4.75128 10.9425 4.95749L15 13.5C15.1158 13.7326 15.1724 13.9902 15.165 14.25C15.1651 14.6937 14.9904 15.1195 14.6787 15.4353C14.3671 15.7512 13.9437 15.9316 13.5 15.9375Z" fill="#A1A5B7"/>
</svg>
