<svg width="18" height="18" viewBox="0 0 18 18" fill="none" xmlns="http://www.w3.org/2000/svg">
<path d="M6.5622 16.6125C6.22012 16.6097 5.88444 16.5193 5.5872 16.35L4.3647 15.6375C4.14225 15.5102 3.94742 15.3399 3.7916 15.1364C3.63577 14.9329 3.52209 14.7004 3.4572 14.4525C3.38858 14.202 3.37048 13.9404 3.40396 13.6829C3.43744 13.4254 3.52183 13.1771 3.6522 12.9525L3.9822 12.39C3.82033 12.1502 3.67499 11.8996 3.5472 11.64H2.8722C2.61612 11.639 2.36275 11.5876 2.12654 11.4887C1.89033 11.3898 1.67591 11.2453 1.49554 11.0636C1.31516 10.8818 1.17235 10.6663 1.07526 10.4293C0.978177 10.1923 0.928715 9.93858 0.929702 9.6825V8.25C0.931875 7.99975 0.983333 7.75239 1.08114 7.52204C1.17894 7.29169 1.32117 7.08286 1.4997 6.9075C1.67974 6.72741 1.89381 6.58493 2.12944 6.48836C2.36507 6.39179 2.61756 6.34306 2.8722 6.345H3.5322C3.66094 6.08439 3.80884 5.8337 3.9747 5.595L3.6447 5.0025C3.51749 4.77944 3.43595 4.53329 3.40482 4.2784C3.3737 4.02351 3.39363 3.76497 3.46343 3.51786C3.53324 3.27075 3.65153 3.04 3.81142 2.83906C3.9713 2.63813 4.16958 2.47103 4.3947 2.3475L5.6247 1.6425C5.84825 1.5173 6.09428 1.43739 6.34873 1.40733C6.60318 1.37727 6.86106 1.39764 7.10763 1.4673C7.3542 1.53695 7.58462 1.65451 7.78573 1.81326C7.98684 1.97201 8.1547 2.16884 8.2797 2.3925L8.6022 2.955C8.86699 2.94 9.13241 2.94 9.3972 2.955L9.7497 2.3625C9.87795 2.14083 10.0486 1.94659 10.2519 1.79088C10.4553 1.63517 10.6873 1.52104 10.9347 1.455C11.1849 1.38424 11.4469 1.36504 11.7047 1.39856C11.9626 1.43208 12.2109 1.51762 12.4347 1.65L13.6572 2.355C14.1045 2.61379 14.4308 3.03957 14.5644 3.5388C14.698 4.03803 14.628 4.56988 14.3697 5.0175L14.0472 5.5875C14.216 5.8257 14.3665 6.07643 14.4972 6.3375H15.1722C15.6888 6.34343 16.182 6.55332 16.5445 6.9214C16.9069 7.28948 17.1092 7.78592 17.1072 8.3025V9.75C17.1013 10.264 16.8935 10.755 16.5286 11.117C16.1638 11.479 15.6712 11.6831 15.1572 11.685H14.4897C14.3668 11.9282 14.229 12.1637 14.0772 12.39L14.4147 12.9825C14.5399 13.206 14.6198 13.4521 14.6499 13.7065C14.6799 13.961 14.6596 14.2189 14.5899 14.4654C14.5203 14.712 14.4027 14.9424 14.2439 15.1435C14.0852 15.3446 13.8884 15.5125 13.6647 15.6375L12.4347 16.3425C12.2114 16.4687 11.9653 16.5494 11.7106 16.58C11.456 16.6106 11.1978 16.5904 10.9509 16.5207C10.7041 16.451 10.4735 16.3331 10.2725 16.1737C10.0715 16.0144 9.90397 15.8169 9.7797 15.5925L9.4497 15.03C9.17015 15.0524 8.88925 15.0524 8.6097 15.03L8.2647 15.615C8.09528 15.9177 7.8482 16.1696 7.54893 16.345C7.24967 16.5203 6.90905 16.6127 6.5622 16.6125ZM2.8872 7.5C2.66958 7.49952 2.46012 7.58277 2.3022 7.7325C2.22569 7.80944 2.16511 7.90071 2.12393 8.00109C2.08275 8.10148 2.06177 8.209 2.0622 8.3175V9.7275C2.07538 9.93451 2.16605 10.129 2.31616 10.2721C2.46627 10.4153 2.6648 10.4966 2.8722 10.5H3.9072C4.01828 10.4982 4.12727 10.5303 4.2197 10.5919C4.31213 10.6535 4.38363 10.7418 4.4247 10.845C4.59953 11.2572 4.82637 11.6454 5.0997 12C5.1667 12.0897 5.20655 12.1967 5.21453 12.3084C5.22251 12.4201 5.19827 12.5317 5.1447 12.63L4.6272 13.5075C4.52197 13.6998 4.49254 13.9246 4.5447 14.1375C4.60153 14.3467 4.73912 14.5247 4.9272 14.6325L6.1497 15.345C6.24357 15.4009 6.34786 15.4371 6.45619 15.4513C6.56452 15.4654 6.67461 15.4574 6.7797 15.4275C6.98988 15.3688 7.16965 15.232 7.2822 15.045L7.7997 14.145C7.85676 14.0495 7.9402 13.9725 8.03999 13.9232C8.13979 13.874 8.25167 13.8546 8.3622 13.8675C8.79562 13.92 9.23379 13.92 9.6672 13.8675C9.7773 13.8499 9.89016 13.8663 9.99068 13.9145C10.0912 13.9628 10.1746 14.0406 10.2297 14.1375L10.7397 15.0225C10.8482 15.2124 11.0276 15.3515 11.2386 15.4091C11.4495 15.4668 11.6747 15.4383 11.8647 15.33L13.0872 14.625C13.1822 14.5731 13.2658 14.5025 13.3328 14.4174C13.3998 14.3323 13.449 14.2346 13.4772 14.13C13.5294 13.9171 13.4999 13.6923 13.3947 13.5L12.8772 12.6C12.8169 12.5074 12.7847 12.3993 12.7847 12.2887C12.7847 12.1782 12.8169 12.0701 12.8772 11.9775C13.1411 11.6368 13.3603 11.2638 13.5297 10.8675C13.5667 10.761 13.6369 10.6691 13.7302 10.6057C13.8234 10.5422 13.9345 10.5104 14.0472 10.515H15.0672C15.2827 10.5235 15.4932 10.4489 15.6552 10.3065C15.8171 10.1641 15.9181 9.96482 15.9372 9.75V8.325C15.9376 8.2165 15.9167 8.10898 15.8755 8.00859C15.8343 7.90821 15.7737 7.81694 15.6972 7.74C15.6225 7.66202 15.5329 7.59991 15.4337 7.55738C15.3345 7.51486 15.2277 7.49279 15.1197 7.4925H14.0922C13.981 7.49066 13.8727 7.45631 13.7807 7.39367C13.6888 7.33103 13.6171 7.24285 13.5747 7.14C13.3997 6.73093 13.1701 6.34744 12.8922 6C12.8246 5.91036 12.785 5.80274 12.7783 5.69066C12.7716 5.57858 12.7982 5.46703 12.8547 5.37L13.3647 4.485C13.473 4.29502 13.5015 4.0698 13.4438 3.85885C13.3862 3.6479 13.2471 3.46847 13.0572 3.36L11.8347 2.625C11.6578 2.52262 11.448 2.49304 11.2497 2.5425C11.0388 2.59979 10.8586 2.73699 10.7472 2.925L10.2297 3.825C10.1741 3.92188 10.0909 4.00001 9.99072 4.04943C9.89054 4.09885 9.77792 4.11732 9.6672 4.1025C9.24633 4.05003 8.82057 4.05003 8.3997 4.1025C8.29007 4.11678 8.17868 4.098 8.0798 4.04856C7.98092 3.99912 7.89905 3.92127 7.8447 3.825L7.3047 2.9325C7.19484 2.7441 7.01542 2.60633 6.80505 2.54883C6.59467 2.49133 6.37013 2.51868 6.1797 2.625L4.9497 3.315C4.76002 3.42362 4.62067 3.60248 4.56173 3.81297C4.50279 4.02345 4.529 4.24867 4.6347 4.44L5.1447 5.3475C5.20726 5.44701 5.23662 5.56382 5.22853 5.68108C5.22044 5.79835 5.17533 5.91002 5.0997 6C4.82855 6.3453 4.60178 6.72325 4.4247 7.125C4.38276 7.22761 4.31105 7.31531 4.21882 7.3768C4.12658 7.43829 4.01805 7.47075 3.9072 7.47H2.8872V7.5ZM8.9997 12C8.40636 12 7.82634 11.8241 7.33299 11.4944C6.83964 11.1648 6.45513 10.6962 6.22806 10.1481C6.001 9.59987 5.94159 8.99667 6.05735 8.41473C6.1731 7.83279 6.45882 7.29824 6.87838 6.87868C7.29794 6.45912 7.83249 6.1734 8.41443 6.05764C8.99637 5.94189 9.59957 6.0013 10.1478 6.22836C10.6959 6.45542 11.1645 6.83994 11.4941 7.33329C11.8238 7.82664 11.9997 8.40666 11.9997 9C11.9997 9.79565 11.6836 10.5587 11.121 11.1213C10.5584 11.6839 9.79535 12 8.9997 12ZM8.9997 7.125C8.62886 7.125 8.26635 7.23497 7.95801 7.44099C7.64967 7.64702 7.40934 7.93986 7.26743 8.28247C7.12551 8.62508 7.08838 9.00208 7.16073 9.36579C7.23308 9.72951 7.41165 10.0636 7.67388 10.3258C7.9361 10.588 8.27019 10.7666 8.63391 10.839C8.99762 10.9113 9.37462 10.8742 9.71723 10.7323C10.0598 10.5904 10.3527 10.35 10.5587 10.0417C10.7647 9.73335 10.8747 9.37084 10.8747 9C10.8747 8.50272 10.6772 8.0258 10.3255 7.67417C9.9739 7.32254 9.49698 7.125 8.9997 7.125Z" fill="#A1A5B7"/>
</svg>
