<svg width="28" height="27" viewBox="0 0 28 27" fill="none" xmlns="http://www.w3.org/2000/svg">
<path opacity="0.3" d="M19.3603 0.130705L8.5071 0.189426C4.11834 0.213172 0.579797 3.79021 0.603542 8.17897L0.661831 18.9521C0.685577 23.3409 4.26262 26.8794 8.65138 26.8557L19.5045 26.797C23.8933 26.7732 27.4319 23.1962 27.4081 18.8074L27.3498 8.03426C27.3261 3.6455 23.749 0.106959 19.3603 0.130705Z" fill="#3E97FF"/>
<path d="M14.0003 18.4467C16.7985 18.4467 19.0669 16.1783 19.0669 13.38C19.0669 10.5818 16.7985 8.31335 14.0003 8.31335C11.202 8.31335 8.93359 10.5818 8.93359 13.38C8.93359 16.1783 11.202 18.4467 14.0003 18.4467Z" fill="#3E97FF"/>
<path d="M22.6654 26.1267C22.0344 24.3319 20.8617 22.7772 19.3092 21.6774C17.7568 20.5776 15.9012 19.9869 13.9987 19.9869C12.0962 19.9869 10.2406 20.5776 8.68815 21.6774C7.13572 22.7772 5.96304 24.3319 5.33203 26.1267C6.37776 26.6042 7.51584 26.8455 8.66536 26.8334H19.5054C20.5955 26.8127 21.6703 26.5724 22.6654 26.1267Z" fill="#3E97FF"/>
</svg>
